<svg xmlns="http://www.w3.org/2000/svg" viewBox="-57 -31 114 62" role="img" aria-labelledby="title desc">
  <title id="title">Mazda RX-7 FD experimental visual blueprint</title>
  <desc id="desc">Original top-down sports-coupe geometry inspired by the supplied references. Front points toward positive X. No badge or logo.</desc>
  <defs>
    <linearGradient id="redMetal" x1="0" y1="0" x2="0" y2="1"><stop offset="0" stop-color="#790A19"/><stop offset=".23" stop-color="#FF4A55"/><stop offset=".52" stop-color="#C9152D"/><stop offset=".82" stop-color="#A70E22"/><stop offset="1" stop-color="#650714"/></linearGradient>
    <linearGradient id="glass" x1="0" y1="0" x2="1" y2="0"><stop stop-color="#09131B"/><stop offset=".55" stop-color="#142532"/><stop offset="1" stop-color="#315063"/></linearGradient>
    <filter id="softGlow" x="-40%" y="-70%" width="180%" height="240%"><feGaussianBlur stdDeviation="1.3"/></filter>
    <style>.outline{stroke:#16070B;stroke-width:1.2;stroke-linejoin:round;vector-effect:non-scaling-stroke}.panel{stroke:#64101E;stroke-width:.65;stroke-linejoin:round;vector-effect:non-scaling-stroke}.fine{fill:none;stroke:#FF9AA3;stroke-width:.5;stroke-linecap:round;vector-effect:non-scaling-stroke;opacity:.82}</style>
  </defs>
  <g id="glow" opacity=".25" filter="url(#softGlow)"><ellipse cx="1" cy="0" rx="47" ry="21" fill="#FF315F"/></g>
  <g id="wheels" fill="#07090D" stroke="#343842" stroke-width=".75"><rect x="-37.5" y="-25" width="14" height="5.5" rx="2.4"/><rect x="-37.5" y="19.5" width="14" height="5.5" rx="2.4"/><rect x="23.5" y="-25" width="14" height="5.5" rx="2.4"/><rect x="23.5" y="19.5" width="14" height="5.5" rx="2.4"/></g>
  <g id="spoiler"><path d="M-50 -24.8 L-45.7 -24.8 L-44.8 -20.5 L-44.8 20.5 L-45.7 24.8 L-50 24.8 Z" fill="#171820" class="outline"/><path d="M-51.5 -25.5 L-44.7 -25.5 L-44.7 -22.4 L-51.5 -22.4 Z M-51.5 22.4 L-44.7 22.4 L-44.7 25.5 L-51.5 25.5 Z" fill="#2B2D36"/><rect x="-45.7" y="-15.5" width="4.3" height="2.4" rx=".7" fill="#101116"/><rect x="-45.7" y="13.1" width="4.3" height="2.4" rx=".7" fill="#101116"/></g>
  <g id="body"><path d="M-49 -11 Q-49 -15 -44 -18 Q-38 -20 -35 -22.5 Q-30.5 -25 -26 -23.8 Q-23 -22 -22 -21.4 L17 -21 Q22 -22.3 26 -24 Q31 -25 36 -23.6 Q43 -21 47 -17 Q50 -13 50 0 Q50 13 47 17 Q43 21 36 23.6 Q31 25 26 24 Q22 22.3 17 21 L-22 21.4 Q-23 22 -26 23.8 Q-30.5 25 -35 22.5 Q-38 20 -44 18 Q-49 15 -49 11 Z" fill="url(#redMetal)" class="outline"/><path d="M-42 -17 Q-35 -21 -27 -20 M-42 17 Q-35 21 -27 20 M22 -19 Q38 -22 47 -14 M22 19 Q38 22 47 14" class="fine"/></g>
  <g id="trunk"><path d="M-47 -14 Q-40 -19 -33 -18 L-29 -13 L-29 13 L-33 18 Q-40 19 -47 14 Z" fill="#B71129" class="panel"/></g>
  <g id="hood"><path d="M18 -16 Q35 -20 45 -15 Q49 -11 49 0 Q49 11 45 15 Q35 20 18 16 L15 10 L15 -10 Z" fill="#D71A32" class="panel"/><path d="M22 -13 Q36 -17 45 -11 M22 13 Q36 17 45 11" class="fine"/></g>
  <g id="cabin"><path d="M-33 0 Q-33 -15 -27 -18 L4 -17 Q14 -16 19 -9 L19 9 Q14 16 4 17 L-27 18 Q-33 15 -33 0 Z" fill="#0A0E13" class="outline"/></g>
  <g id="windows"><path id="rear-glass" d="M-31 -12 Q-28 -15 -21 -15 L-17 -11 L-17 11 L-21 15 Q-28 15 -31 12 Z" fill="url(#glass)" class="panel"/><path id="windshield" d="M3 -14 L9 -15 Q15 -14 18 -8 L18 8 Q15 14 9 15 L3 14 L0 10 L0 -10 Z" fill="url(#glass)" class="panel"/><path d="M-20 -15.8 L2 -14.6 L-1 -11 L-18 -11.8 Z M-20 15.8 L2 14.6 L-1 11 L-18 11.8 Z" fill="#101C25" class="panel"/></g>
  <g id="roof"><path d="M-19 -11 L2 -10.5 L4 -7 L4 7 L2 10.5 L-19 11 L-22 8 L-22 -8 Z" fill="#C8162E" class="panel"/><path d="M-16 -8.8 L0 -8.4 M-16 8.8 L0 8.4" class="fine"/></g>
  <g id="vents" fill="#171820" class="panel"><path d="M23 -13.8 L42 -11.5 L39 -6.2 L22 -7.5 Z"/><path d="M23 13.8 L42 11.5 L39 6.2 L22 7.5 Z"/></g>
  <g id="body-accents" fill="#171820"><path d="M-39 -19.5 L-22 -19.7 L-17 -17.4 L-34 -16.7 Z M-39 19.5 L-22 19.7 L-17 17.4 L-34 16.7 Z"/><path d="M-2 -20.4 L13 -19.7 L17 -17.8 L2 -18.1 Z M-2 20.4 L13 19.7 L17 17.8 L2 18.1 Z"/></g>
  <g id="wheel-arches" fill="none" stroke="#560A17" stroke-width="1.2" stroke-linecap="round"><path d="M-38 -20 Q-31 -25 -23 -20 M-38 20 Q-31 25 -23 20 M23 -20 Q31 -25 39 -20 M23 20 Q31 25 39 20"/></g>
  <g id="headlights"><path d="M42 -17 Q48 -13 49 -8 L46 -8.8 L40 -13.3 Z" fill="#E9FDFF" stroke="#77E8FF" stroke-width=".7"/><path d="M42 17 Q48 13 49 8 L46 8.8 L40 13.3 Z" fill="#E9FDFF" stroke="#77E8FF" stroke-width=".7"/></g>
  <g id="taillights" fill="#FF2447" stroke="#5B0615" stroke-width=".6"><ellipse cx="-46.5" cy="-12" rx="2.1" ry="3.1"/><ellipse cx="-46.5" cy="12" rx="2.1" ry="3.1"/></g>
  <g id="blueprint-anchors" display="none" fill="#FF4FD8"><circle cx="-30.5" cy="0" r="1"/><circle cx="30.5" cy="0" r="1"/><circle cx="0" cy="0" r="1"/></g>
</svg>
